<svg width="112" height="137" viewBox="0 0 112 137" fill="none" xmlns="http://www.w3.org/2000/svg">
                                <path fill-rule="evenodd" clip-rule="evenodd" d="M107.549 98.7109C101.559 90.8936 94.3124 85.8172 83.9294 82.9368L74.2007 116.998C74.2007 120.135 71.6319 122.704 68.4947 122.704C65.3585 122.704 62.7896 120.135 62.7896 116.998V89.8963C62.7896 85.96 59.5937 82.7638 55.6571 82.7638C51.7208 82.7638 48.5252 85.96 48.5252 89.8963V116.998C48.5252 120.135 45.9564 122.704 42.8199 122.704C39.6824 122.704 37.1135 120.135 37.1135 116.998L27.3849 82.9368C17.0015 85.8451 9.75534 90.8936 3.76548 98.7109C1.39729 101.792 0.110519 107.982 0.0263672 111.293C0.0546272 112.149 0.0263672 113.147 0.0263672 114.145V119.851V125.557C0.0263672 131.861 5.13326 136.968 11.4381 136.968H99.8756C106.18 136.968 111.288 131.861 111.288 125.557V119.851V114.145C111.288 113.147 111.26 112.149 111.288 111.293C111.202 107.982 109.916 101.792 107.549 98.7109ZM25.7022 30.2147C25.7022 46.8752 36.0886 71.3528 55.6571 71.3528C74.8855 71.3528 85.6115 46.8752 85.6115 30.2147C85.6115 13.5548 72.203 0.0317383 55.6571 0.0317383C39.1112 0.0317383 25.7022 13.5548 25.7022 30.2147Z" fill="#3F9955"/>
                                </svg>